<svg width="45" height="38" viewBox="0 0 45 38" fill="none" xmlns="http://www.w3.org/2000/svg">
<path d="M18 16.6667C22.9706 16.6667 27 12.9357 27 8.33333C27 3.73096 22.9706 0 18 0C13.0294 0 9 3.73096 9 8.33333C9 12.9357 13.0294 16.6667 18 16.6667Z" fill="#F28F32"/>
<path d="M18.7875 20.8542C12.645 20.6459 0 23.4792 0 29.1667V33.3334H21.465C15.9075 27.5834 18.6975 21.0625 18.7875 20.8542Z" fill="#F28F32"/>
<path d="M39.2175 29.2084C40.0275 27.9792 40.5 26.5417 40.5 25.0001C40.5 20.3959 36.4725 16.6667 31.5 16.6667C26.5275 16.6667 22.5 20.3959 22.5 25.0001C22.5 29.6042 26.5275 33.3334 31.5 33.3334C33.165 33.3334 34.7175 32.8751 36.045 32.1459L41.8275 37.5001L45 34.5626L39.2175 29.2084ZM31.5 29.1667C29.025 29.1667 27 27.2917 27 25.0001C27 22.7084 29.025 20.8334 31.5 20.8334C33.975 20.8334 36 22.7084 36 25.0001C36 27.2917 33.975 29.1667 31.5 29.1667Z" fill="#F28F32"/>
</svg>
