<svg width="386" height="99" viewBox="0 0 386 99" fill="none" xmlns="http://www.w3.org/2000/svg">
<rect y="8" width="73" height="70" fill="white"/>
<path d="M63.4996 24.98H57.5496V61.52H63.2196V66H47.0496V61.52H52.3696V32.54H52.0896L36.8296 63.69H34.0996L18.4896 32.33H18.2096V61.52H23.6696V66H7.56957V61.52H13.3096V24.98H7.35957V20.5H17.7896L35.4996 56.13H35.7796L52.9996 20.5H63.4996V24.98Z" fill="white"/>
<path d="M167.154 30.7013H161.794V58.9753H166.484V66.6133H148.997V58.9753H152.816V42.3593H152.548L141.091 63.0623H137.339L125.011 41.5553H124.743V58.9753H128.897V66.6133H111.678V58.9753H116.368V30.7013H111.008V23.0633H123.872L139.349 50.0643H139.617L154.156 23.0633H167.154V30.7013ZM199.035 57.0993C198.812 59.7793 197.494 62.1466 195.082 64.2013C192.67 66.2559 189.298 67.2833 184.965 67.2833C180.454 67.2833 176.724 66.0103 173.776 63.4643C170.873 60.9183 169.421 57.1216 169.421 52.0743C169.421 47.4289 170.739 43.5653 173.374 40.4833C176.054 37.3566 179.784 35.7933 184.563 35.7933C188.762 35.7933 192.156 36.9993 194.747 39.4113C197.382 41.8233 198.722 44.9946 198.767 48.9253C198.767 50.3993 198.611 51.8509 198.298 53.2803H178.466C178.957 58.0596 181.325 60.4493 185.568 60.4493C187.891 60.4493 189.454 59.8909 190.258 58.7743C191.107 57.6576 191.62 56.6526 191.799 55.7593L199.035 57.0993ZM189.856 48.2553C190.035 46.7366 189.7 45.3073 188.851 43.9673C188.047 42.6273 186.618 41.9573 184.563 41.9573C182.776 41.9573 181.392 42.5379 180.409 43.6993C179.426 44.8606 178.801 46.3793 178.533 48.2553H189.856ZM237.654 66.6133H224.991V60.9853C224.142 62.7273 222.892 64.2236 221.239 65.4743C219.586 66.6803 217.398 67.2833 214.673 67.2833C210.698 67.2833 207.571 65.9209 205.293 63.1963C203.015 60.4716 201.876 56.7643 201.876 52.0743C201.876 47.5629 202.993 43.7216 205.226 40.5503C207.459 37.3789 210.832 35.7933 215.343 35.7933C217.8 35.7933 219.81 36.2846 221.373 37.2673C222.936 38.2499 224.142 39.5006 224.991 41.0193V27.0833H218.961V20.5173H233.634V60.1143H237.654V66.6133ZM224.991 51.3373V50.6003C224.991 48.0989 224.321 46.1559 222.981 44.7713C221.686 43.3419 220.055 42.6273 218.09 42.6273C216.169 42.6273 214.472 43.3419 212.998 44.7713C211.569 46.2006 210.854 48.4563 210.854 51.5383C210.854 54.4416 211.524 56.6526 212.864 58.1713C214.204 59.6899 215.79 60.4493 217.621 60.4493C219.899 60.4493 221.686 59.4889 222.981 57.5683C224.321 55.6476 224.991 53.5706 224.991 51.3373ZM267.758 57.3673C267.758 60.7173 266.418 63.2186 263.738 64.8713C261.102 66.4793 257.663 67.2833 253.42 67.2833C251.231 67.2833 249.02 67.0599 246.787 66.6133C244.598 66.1219 242.499 65.3626 240.489 64.3353L241.695 55.8933L248.395 56.6303V60.3823C249.199 60.6503 250.047 60.8289 250.941 60.9183C251.834 60.9629 252.504 60.9853 252.951 60.9853C254.603 60.9853 256.033 60.7173 257.239 60.1813C258.445 59.6453 259.048 58.8413 259.048 57.7693C259.048 56.4739 258.132 55.6253 256.301 55.2233C254.469 54.8213 252.348 54.4193 249.936 54.0173C247.524 53.6153 245.402 52.7889 243.571 51.5383C241.739 50.2876 240.824 48.1659 240.824 45.1733C240.824 41.4659 242.253 38.9869 245.112 37.7363C248.015 36.4409 251.008 35.7933 254.09 35.7933C258.11 35.7933 261.884 36.7089 265.413 38.5403L266.15 46.2453L259.45 46.9823L258.914 42.7613C257.44 42.2699 255.854 42.0243 254.157 42.0243C253.04 42.0243 252.08 42.2699 251.276 42.7613C250.516 43.2079 250.137 43.9226 250.137 44.9053C250.137 46.2006 251.008 47.0716 252.75 47.5183C254.536 47.9203 256.591 48.3223 258.914 48.7243C261.281 49.1263 263.336 49.9526 265.078 51.2033C266.864 52.4093 267.758 54.4639 267.758 57.3673ZM296.567 57.2333C296.12 60.7173 294.914 63.2633 292.949 64.8713C290.983 66.4793 288.437 67.2833 285.311 67.2833C281.961 67.2833 279.236 66.4569 277.137 64.8043C275.082 63.1069 274.055 60.6949 274.055 57.5683V42.5603H269.767V36.3963H274.055V27.2173H282.698V36.3963H293.552V42.5603H282.698V56.0943C282.698 58.7296 283.904 60.0473 286.316 60.0473C286.852 60.0473 287.566 59.8239 288.46 59.3773C289.398 58.8859 290.001 57.5236 290.269 55.2903L296.567 57.2333ZM327.081 57.0993C326.858 59.7793 325.54 62.1466 323.128 64.2013C320.716 66.2559 317.344 67.2833 313.011 67.2833C308.5 67.2833 304.77 66.0103 301.822 63.4643C298.919 60.9183 297.467 57.1216 297.467 52.0743C297.467 47.4289 298.785 43.5653 301.42 40.4833C304.1 37.3566 307.83 35.7933 312.609 35.7933C316.808 35.7933 320.202 36.9993 322.793 39.4113C325.428 41.8233 326.768 44.9946 326.813 48.9253C326.813 50.3993 326.657 51.8509 326.344 53.2803H306.512C307.003 58.0596 309.371 60.4493 313.614 60.4493C315.937 60.4493 317.5 59.8909 318.304 58.7743C319.153 57.6576 319.666 56.6526 319.845 55.7593L327.081 57.0993ZM317.902 48.2553C318.081 46.7366 317.746 45.3073 316.897 43.9673C316.093 42.6273 314.664 41.9573 312.609 41.9573C310.822 41.9573 309.438 42.5379 308.455 43.6993C307.472 44.8606 306.847 46.3793 306.579 48.2553H317.902ZM369.539 66.6133H358.417L349.774 49.9973H343.878V58.9753H348.568V66.6133H330.21V58.9753H334.9V30.7013H330.21V23.0633H349.908C355.313 23.0633 359.467 24.1799 362.37 26.4133C365.274 28.6019 366.725 31.8849 366.725 36.2623C366.725 39.2103 365.966 41.6893 364.447 43.6993C362.929 45.6646 360.919 47.1386 358.417 48.1213L364.313 58.9753H369.539V66.6133ZM357.077 36.4633C357.077 34.2746 356.43 32.7783 355.134 31.9743C353.839 31.1256 351.561 30.7013 348.3 30.7013H343.878V42.8953H348.166C351.606 42.8953 353.951 42.3369 355.201 41.2203C356.452 40.1036 357.077 38.5179 357.077 36.4633ZM372.802 66.6133V55.6923H383.053V66.6133H372.802Z" fill="white"/>
<line x1="92.4419" y1="9.93652" x2="92.4419" y2="77.9365" stroke="white"/>
</svg>
