<svg width="200" height="34" viewBox="0 0 200 34" fill="none" xmlns="http://www.w3.org/2000/svg">
<path d="M41.2771 7.40401H37.3365V27.9599H40.7845V33.5129H27.9285V27.9599H30.7361V15.8797H30.5391L22.1162 30.9312H19.3579L10.2946 15.2951H10.0976V27.9599H13.1515V33.5129H0.492566V27.9599H3.94053V7.40401H0V1.851H9.45727L20.8356 21.4814H21.0326L31.7213 1.851H41.2771V7.40401Z" fill="#FE9C45"/>
<path d="M64.7151 26.596C64.5509 28.5444 63.5822 30.2655 61.809 31.7593C60.0357 33.2531 57.5565 34 54.3712 34C51.0546 34 48.3127 33.0745 46.1454 31.2235C44.0109 29.3725 42.9437 26.6122 42.9437 22.9427C42.9437 19.5654 43.9124 16.7564 45.8498 14.5158C47.8201 12.2426 50.5621 11.106 54.0757 11.106C57.1624 11.106 59.6581 11.9828 61.5627 13.7364C63.5001 15.49 64.4853 17.7956 64.5181 20.6533C64.5181 21.7249 64.4032 22.7803 64.1733 23.8195H49.5933C49.9546 27.2942 51.695 29.0315 54.8145 29.0315C56.5221 29.0315 57.6714 28.6256 58.2625 27.8138C58.8864 27.0019 59.2641 26.2712 59.3954 25.6218L64.7151 26.596ZM57.967 20.1662C58.0983 19.0621 57.852 18.0229 57.2281 17.0487C56.637 16.0745 55.5862 15.5874 54.0757 15.5874C52.7622 15.5874 51.7442 16.0096 51.0218 16.8539C50.2994 17.6982 49.8396 18.8023 49.6426 20.1662H57.967Z" fill="#FE9C45"/>
<path d="M93.1066 33.5129H83.7971V29.4212C83.1731 30.6877 82.2537 31.7755 81.0387 32.6848C79.8237 33.5616 78.2146 34 76.2115 34C73.289 34 70.9903 33.0095 69.3156 31.0287C67.6409 29.0478 66.8035 26.3524 66.8035 22.9427C66.8035 19.6628 67.6245 16.8701 69.2664 14.5645C70.9082 12.2588 73.3875 11.106 76.7041 11.106C78.5102 11.106 79.9879 11.4632 81.1372 12.1776C82.2865 12.8921 83.1731 13.8013 83.7971 14.9054V4.77364H79.364V0H90.1512V28.788H93.1066V33.5129ZM83.7971 22.4069V21.8711C83.7971 20.0525 83.3045 18.6399 82.3194 17.6332C81.3671 16.5941 80.1685 16.0745 78.7236 16.0745C77.3116 16.0745 76.0638 16.5941 74.9801 17.6332C73.9293 18.6724 73.4039 20.3123 73.4039 22.553C73.4039 24.6638 73.8965 26.2713 74.8816 27.3754C75.8668 28.4795 77.0325 29.0315 78.3788 29.0315C80.0536 29.0315 81.3671 28.3333 82.3194 26.937C83.3045 25.5406 83.7971 24.0306 83.7971 22.4069Z" fill="#FE9C45"/>
<path d="M115.238 26.7908C115.238 29.2264 114.253 31.0449 112.283 32.2464C110.345 33.4155 107.817 34 104.697 34C103.088 34 101.463 33.8376 99.8209 33.5129C98.2118 33.1557 96.6684 32.6036 95.1907 31.8567L96.0774 25.7192L101.003 26.255V28.9828C101.594 29.1776 102.218 29.3075 102.875 29.3725C103.532 29.405 104.024 29.4212 104.352 29.4212C105.567 29.4212 106.618 29.2264 107.505 28.8367C108.392 28.447 108.835 27.8625 108.835 27.0831C108.835 26.1414 108.162 25.5244 106.815 25.2321C105.469 24.9398 103.909 24.6476 102.136 24.3553C100.363 24.063 98.8029 23.4623 97.4565 22.553C96.1102 21.6437 95.437 20.1012 95.437 17.9255C95.437 15.2302 96.4878 13.4279 98.5894 12.5186C100.724 11.5769 102.924 11.106 105.19 11.106C108.145 11.106 110.92 11.7717 113.514 13.1031L114.056 18.7049L109.13 19.2407L108.736 16.1719C107.653 15.8147 106.487 15.6361 105.239 15.6361C104.418 15.6361 103.712 15.8147 103.121 16.1719C102.563 16.4967 102.284 17.0162 102.284 17.7307C102.284 18.6724 102.924 19.3056 104.205 19.6304C105.518 19.9226 107.029 20.2149 108.736 20.5072C110.477 20.7994 111.987 21.4002 113.268 22.3095C114.581 23.1862 115.238 24.68 115.238 26.7908Z" fill="#FE9C45"/>
<path d="M136.418 26.6934C136.089 29.2264 135.203 31.0774 133.758 32.2464C132.313 33.4155 130.441 34 128.143 34C125.68 34 123.677 33.3992 122.133 32.1977C120.623 30.9637 119.868 29.2101 119.868 26.937V16.0258H116.715V11.5444H119.868V4.87106H126.222V11.5444H134.201V16.0258H126.222V25.8653C126.222 27.7813 127.108 28.7393 128.882 28.7393C129.276 28.7393 129.801 28.5769 130.458 28.2521C131.147 27.8949 131.591 26.9045 131.788 25.2808L136.418 26.6934Z" fill="#FE9C45"/>
<path d="M158.851 26.596C158.687 28.5444 157.718 30.2655 155.945 31.7593C154.172 33.2531 151.692 34 148.507 34C145.191 34 142.449 33.0745 140.281 31.2235C138.147 29.3725 137.08 26.6122 137.08 22.9427C137.08 19.5654 138.048 16.7564 139.986 14.5158C141.956 12.2426 144.698 11.106 148.212 11.106C151.298 11.106 153.794 11.9828 155.699 13.7364C157.636 15.49 158.621 17.7956 158.654 20.6533C158.654 21.7249 158.539 22.7803 158.309 23.8195H143.729C144.091 27.2942 145.831 29.0315 148.951 29.0315C150.658 29.0315 151.807 28.6256 152.398 27.8138C153.022 27.0019 153.4 26.2712 153.531 25.6218L158.851 26.596ZM152.103 20.1662C152.234 19.0621 151.988 18.0229 151.364 17.0487C150.773 16.0745 149.722 15.5874 148.212 15.5874C146.898 15.5874 145.88 16.0096 145.158 16.8539C144.435 17.6982 143.976 18.8023 143.779 20.1662H152.103Z" fill="#FE9C45"/>
<path d="M190.065 33.5129H181.889L175.534 21.4327H171.2V27.9599H174.648V33.5129H161.152V27.9599H164.599V7.40401H161.152V1.851H175.633C179.606 1.851 182.66 2.66285 184.795 4.28653C186.929 5.87775 187.996 8.26457 187.996 11.447C187.996 13.5903 187.438 15.3925 186.322 16.8539C185.205 18.2827 183.727 19.3543 181.889 20.0688L186.223 27.9599H190.065V33.5129ZM180.903 11.5931C180.903 10.0019 180.427 8.91404 179.475 8.32951C178.523 7.71251 176.848 7.40401 174.451 7.40401H171.2V16.2693H174.352C176.881 16.2693 178.605 15.8634 179.524 15.0516C180.444 14.2397 180.903 13.0869 180.903 11.5931Z" fill="#FE9C45"/>
<path d="M192.464 33.5129V25.5731H200V33.5129H192.464Z" fill="#FE9C45"/>
</svg>
