<svg width="273" height="48" viewBox="0 0 273 48" fill="none" xmlns="http://www.w3.org/2000/svg">
<path d="M56.223 11.088H50.863V39.362H55.553V47H38.066V39.362H41.885V22.746H41.617L30.16 43.449H26.408L14.08 21.942H13.812V39.362H17.966V47H0.747V39.362H5.437V11.088H0.0770001V3.45H12.941L28.418 30.451H28.686L43.225 3.45H56.223V11.088ZM88.104 37.486C87.8807 40.166 86.563 42.5333 84.151 44.588C81.739 46.6427 78.3667 47.67 74.034 47.67C69.5227 47.67 65.793 46.397 62.845 43.851C59.9417 41.305 58.49 37.5083 58.49 32.461C58.49 27.8157 59.8077 23.952 62.443 20.87C65.123 17.7433 68.8527 16.18 73.632 16.18C77.8307 16.18 81.2253 17.386 83.816 19.798C86.4513 22.21 87.7913 25.3813 87.836 29.312C87.836 30.786 87.6797 32.2377 87.367 33.667H67.535C68.0263 38.4463 70.3937 40.836 74.637 40.836C76.9597 40.836 78.523 40.2777 79.327 39.161C80.1757 38.0443 80.6893 37.0393 80.868 36.146L88.104 37.486ZM78.925 28.642C79.1037 27.1233 78.7687 25.694 77.92 24.354C77.116 23.014 75.6867 22.344 73.632 22.344C71.8453 22.344 70.4607 22.9247 69.478 24.086C68.4953 25.2473 67.87 26.766 67.602 28.642H78.925ZM126.723 47H114.06V41.372C113.211 43.114 111.96 44.6103 110.308 45.861C108.655 47.067 106.466 47.67 103.742 47.67C99.7664 47.67 96.6397 46.3077 94.3617 43.583C92.0837 40.8583 90.9447 37.151 90.9447 32.461C90.9447 27.9497 92.0614 24.1083 94.2947 20.937C96.528 17.7657 99.9004 16.18 104.412 16.18C106.868 16.18 108.878 16.6713 110.442 17.654C112.005 18.6367 113.211 19.8873 114.06 21.406V7.47H108.03V0.903998H122.703V40.501H126.723V47ZM114.06 31.724V30.987C114.06 28.4857 113.39 26.5427 112.05 25.158C110.754 23.7287 109.124 23.014 107.159 23.014C105.238 23.014 103.541 23.7287 102.067 25.158C100.637 26.5873 99.9227 28.843 99.9227 31.925C99.9227 34.8283 100.593 37.0393 101.933 38.558C103.273 40.0767 104.858 40.836 106.69 40.836C108.968 40.836 110.754 39.8757 112.05 37.955C113.39 36.0343 114.06 33.9573 114.06 31.724ZM156.827 37.754C156.827 41.104 155.487 43.6053 152.807 45.258C150.171 46.866 146.732 47.67 142.489 47.67C140.3 47.67 138.089 47.4467 135.856 47C133.667 46.5087 131.568 45.7493 129.558 44.722L130.764 36.28L137.464 37.017V40.769C138.268 41.037 139.116 41.2157 140.01 41.305C140.903 41.3497 141.573 41.372 142.02 41.372C143.672 41.372 145.102 41.104 146.308 40.568C147.514 40.032 148.117 39.228 148.117 38.156C148.117 36.8607 147.201 36.012 145.37 35.61C143.538 35.208 141.417 34.806 139.005 34.404C136.593 34.002 134.471 33.1757 132.64 31.925C130.808 30.6743 129.893 28.5527 129.893 25.56C129.893 21.8527 131.322 19.3737 134.181 18.123C137.084 16.8277 140.077 16.18 143.159 16.18C147.179 16.18 150.953 17.0957 154.482 18.927L155.219 26.632L148.519 27.369L147.983 23.148C146.509 22.6567 144.923 22.411 143.226 22.411C142.109 22.411 141.149 22.6567 140.345 23.148C139.585 23.5947 139.206 24.3093 139.206 25.292C139.206 26.5873 140.077 27.4583 141.819 27.905C143.605 28.307 145.66 28.709 147.983 29.111C150.35 29.513 152.405 30.3393 154.147 31.59C155.933 32.796 156.827 34.8507 156.827 37.754ZM185.636 37.62C185.189 41.104 183.983 43.65 182.018 45.258C180.052 46.866 177.506 47.67 174.38 47.67C171.03 47.67 168.305 46.8437 166.206 45.191C164.151 43.4937 163.124 41.0817 163.124 37.955V22.947H158.836V16.783H163.124V7.604H171.767V16.783H182.621V22.947H171.767V36.481C171.767 39.1163 172.973 40.434 175.385 40.434C175.921 40.434 176.635 40.2107 177.529 39.764C178.467 39.2727 179.07 37.9103 179.338 35.677L185.636 37.62ZM216.15 37.486C215.927 40.166 214.609 42.5333 212.197 44.588C209.785 46.6427 206.413 47.67 202.08 47.67C197.569 47.67 193.839 46.397 190.891 43.851C187.988 41.305 186.536 37.5083 186.536 32.461C186.536 27.8157 187.854 23.952 190.489 20.87C193.169 17.7433 196.899 16.18 201.678 16.18C205.877 16.18 209.271 17.386 211.862 19.798C214.497 22.21 215.837 25.3813 215.882 29.312C215.882 30.786 215.726 32.2377 215.413 33.667H195.581C196.072 38.4463 198.44 40.836 202.683 40.836C205.006 40.836 206.569 40.2777 207.373 39.161C208.222 38.0443 208.735 37.0393 208.914 36.146L216.15 37.486ZM206.971 28.642C207.15 27.1233 206.815 25.694 205.966 24.354C205.162 23.014 203.733 22.344 201.678 22.344C199.891 22.344 198.507 22.9247 197.524 24.086C196.541 25.2473 195.916 26.766 195.648 28.642H206.971ZM258.608 47H247.486L238.843 30.384H232.947V39.362H237.637V47H219.279V39.362H223.969V11.088H219.279V3.45H238.977C244.382 3.45 248.536 4.56666 251.439 6.8C254.342 8.98867 255.794 12.2717 255.794 16.649C255.794 19.597 255.035 22.076 253.516 24.086C251.997 26.0513 249.987 27.5253 247.486 28.508L253.382 39.362H258.608V47ZM246.146 16.85C246.146 14.6613 245.498 13.165 244.203 12.361C242.908 11.5123 240.63 11.088 237.369 11.088H232.947V23.282H237.235C240.674 23.282 243.019 22.7237 244.27 21.607C245.521 20.4903 246.146 18.9047 246.146 16.85ZM261.871 47V36.079H272.122V47H261.871Z" fill="#F28F32"/>
</svg>
