<svg width="24" height="24" viewBox="0 0 24 24" fill="none" xmlns="http://www.w3.org/2000/svg">
<g clip-path="url(#clip0)">
<path fill-rule="evenodd" clip-rule="evenodd" d="M15.1001 1.30529C14.6963 0.892104 14.2141 0.563784 13.6816 0.339627C13.1492 0.115471 12.5773 0 11.9996 0C11.4219 0 10.85 0.115471 10.3176 0.339627C9.78513 0.563784 9.30286 0.892104 8.8991 1.30529L7.9661 2.26229L6.6311 2.24579C6.05323 2.23895 5.47982 2.34773 4.94459 2.56573C4.40937 2.78372 3.92314 3.10653 3.51449 3.51518C3.10584 3.92383 2.78303 4.41006 2.56503 4.94529C2.34704 5.48051 2.23826 6.05392 2.2451 6.63179L2.2601 7.96679L1.3061 8.89979C0.892912 9.30355 0.564593 9.78582 0.340436 10.3183C0.11628 10.8507 0.000808716 11.4226 0.000808716 12.0003C0.000808716 12.578 0.11628 13.1499 0.340436 13.6823C0.564593 14.2148 0.892912 14.697 1.3061 15.1008L2.2616 16.0338L2.2451 17.3688C2.23826 17.9467 2.34704 18.5201 2.56503 19.0553C2.78303 19.5905 3.10584 20.0768 3.51449 20.4854C3.92314 20.8941 4.40937 21.2169 4.94459 21.4349C5.47982 21.6529 6.05323 21.7616 6.6311 21.7548L7.9661 21.7398L8.8991 22.6938C9.30286 23.107 9.78513 23.4353 10.3176 23.6595C10.85 23.8836 11.4219 23.9991 11.9996 23.9991C12.5773 23.9991 13.1492 23.8836 13.6816 23.6595C14.2141 23.4353 14.6963 23.107 15.1001 22.6938L16.0331 21.7383L17.3681 21.7548C17.946 21.7616 18.5194 21.6529 19.0546 21.4349C19.5898 21.2169 20.0761 20.8941 20.4847 20.4854C20.8934 20.0768 21.2162 19.5905 21.4342 19.0553C21.6522 18.5201 21.7609 17.9467 21.7541 17.3688L21.7391 16.0338L22.6931 15.1008C23.1063 14.697 23.4346 14.2148 23.6588 13.6823C23.8829 13.1499 23.9984 12.578 23.9984 12.0003C23.9984 11.4226 23.8829 10.8507 23.6588 10.3183C23.4346 9.78582 23.1063 9.30355 22.6931 8.89979L21.7376 7.96679L21.7541 6.63179C21.7609 6.05392 21.6522 5.48051 21.4342 4.94529C21.2162 4.41006 20.8934 3.92383 20.4847 3.51518C20.0761 3.10653 19.5898 2.78372 19.0546 2.56573C18.5194 2.34773 17.946 2.23895 17.3681 2.24579L16.0331 2.26079L15.1001 1.30679V1.30529ZM15.5306 10.2813C15.6714 10.1405 15.7506 9.94946 15.7506 9.75029C15.7506 9.55113 15.6714 9.36012 15.5306 9.21929C15.3898 9.07846 15.1988 8.99935 14.9996 8.99935C14.8004 8.99935 14.6094 9.07846 14.4686 9.21929L10.4996 13.1898L8.7806 11.4693C8.71087 11.3996 8.62809 11.3442 8.53698 11.3065C8.44587 11.2688 8.34822 11.2493 8.2496 11.2493C8.15099 11.2493 8.05334 11.2688 7.96223 11.3065C7.87112 11.3442 7.78833 11.3996 7.7186 11.4693C7.64887 11.539 7.59356 11.6218 7.55582 11.7129C7.51808 11.804 7.49865 11.9017 7.49865 12.0003C7.49865 12.0989 7.51808 12.1966 7.55582 12.2877C7.59356 12.3788 7.64887 12.4616 7.7186 12.5313L9.9686 14.7813C10.0383 14.8511 10.121 14.9066 10.2122 14.9444C10.3033 14.9822 10.401 15.0016 10.4996 15.0016C10.5983 15.0016 10.6959 14.9822 10.7871 14.9444C10.8782 14.9066 10.9609 14.8511 11.0306 14.7813L15.5306 10.2813V10.2813Z" fill="#607AFF"/>
</g>
<defs>
<clipPath id="clip0">
<rect width="24" height="24" fill="white"/>
</clipPath>
</defs>
</svg>
