<svg width="50" height="44" viewBox="0 0 50 44" fill="none" xmlns="http://www.w3.org/2000/svg">
<path d="M30 11.5C30 14.8153 27.3153 17.5 24 17.5C20.6847 17.5 18 14.8153 18 11.5C18 8.18468 20.6847 5.5 24 5.5C27.3153 5.5 30 8.18468 30 11.5ZM10.5 30.25C10.5 29.5541 10.8367 28.8335 11.6571 28.0763C12.4876 27.3097 13.7099 26.6112 15.1805 26.0221C18.124 24.8429 21.6844 24.25 24 24.25C26.3156 24.25 29.876 24.8429 32.8195 26.0221C34.2901 26.6112 35.5124 27.3097 36.3429 28.0763C37.1633 28.8335 37.5 29.5541 37.5 30.25V32.5H10.5V30.25Z" fill="white" stroke="#F28F32" stroke-width="3"/>
<path d="M48.5 22C48.5 33.1474 38.1646 42.5 25 42.5C11.8354 42.5 1.5 33.1474 1.5 22C1.5 10.8526 11.8354 1.5 25 1.5C38.1646 1.5 48.5 10.8526 48.5 22Z" stroke="#F28F32" stroke-width="3"/>
</svg>
